<svg viewBox="0 0 1400 1000" xmlns="http://www.w3.org/2000/svg">
    <defs>
        <filter id="customWhiteDropShadow" x="-10%" y="-10%" width="130%" height="130%" filterUnits="userSpaceOnUse" color-interpolation-filters="sRGB">
            <feOffset dx="6" dy="6"/>
            <feGaussianBlur stdDeviation="8"/>
            <feColorMatrix type="matrix" values="0 0 0 0 0.9 0 0 0 0 0.9 0 0 0 0 0.9 0 0 0 0.4 0"/>
            <feBlend mode="normal" in2="BackgroundImageFix" result="effect1_dropShadow"/>
            <feColorMatrix in="SourceAlpha" type="matrix" values="0 0 0 0 0 0 0 0 0 0 0 0 0 0 0 0 0 0 127 0"/>
            <feOffset dx="-6" dy="-6"/>
            <feGaussianBlur stdDeviation="13"/>
            <feColorMatrix type="matrix" values="0 0 0 0 0.9 0 0 0 0 0.9 0 0 0 0 0.9 0 0 0 0.9 0"/>
            <feBlend mode="normal" in2="effect1_dropShadow" result="effect2_dropShadow"/>
            <feBlend mode="normal" in="SourceGraphic" in2="effect2_dropShadow" result="shape"/>
        </filter>
    </defs>
    <g opacity="0.4" filter="url(#customWhiteDropShadow)">
        <g class="splashscreen-animation-group1">
            <path d="M 440, 626 L 345, 793 L 440, 955 L 628, 956 L 724, 794 L 629, 625 Z" class="onyxia-fill-useCases-surfaces-background" fill="black"/>
            <path d="M 134, 447 L 38, 612 L 134, 778 L 323, 777 L 418, 615 L 322, 447 Z" class="onyxia-fill-useCases-surfaces-background" fill="black"/>
        </g>
        <g class="splashscreen-animation-group2">
            <path d="M 938, 447 L 749, 446 L 652, 612 L 748, 777 L 935, 777 L 1032, 610 Z" class="onyxia-fill-useCases-surfaces-background" fill="black"/>
            <path d="M 439, 270 L 345, 432 L 441, 600 L 630, 599 L 725, 436 L 637, 279 Z" class="onyxia-fill-useCases-surfaces-background" fill="black"/>
        </g>
        <g class="splashscreen-animation-group3">
            <path d="M 1056, 269 L 961, 431 L 1056, 600 L 1244, 600 L 1336, 425 L 1245, 269 Z" class="onyxia-fill-useCases-surfaces-background" fill="black"/>
            <path d="M 748, 92 L 653, 254 L 750, 422 L 937, 422 L 1032, 253 L 937, 91 Z" class="onyxia-fill-useCases-surfaces-background" fill="black"/>
        </g>
    </g>
</svg>
